<?xml version="1.0" encoding="UTF-8"?>
<svg version="1.1" xmlns="http://www.w3.org/2000/svg" width="500" height="126">
<path d="M0 0 C4.46567763 -0.09917794 8.93076507 -0.17161225 13.3972168 -0.21972656 C14.9152341 -0.23979203 16.43317459 -0.26705134 17.95092773 -0.30175781 C20.13805122 -0.35050393 22.32414952 -0.37301805 24.51171875 -0.390625 C25.82615967 -0.41157227 27.14060059 -0.43251953 28.49487305 -0.45410156 C32.73756773 0.0955545 34.10368233 0.87084469 37 4 C38.7677069 6.74980797 40.21717729 9.62004946 41.66015625 12.55078125 C42.30038727 13.81478508 42.30038727 13.81478508 42.95355225 15.10432434 C44.33396073 17.83510995 45.69810586 20.57368357 47.0625 23.3125 C48.00936945 25.19124384 48.95753434 27.06933534 49.90698242 28.94677734 C51.77119028 32.63467334 53.63064897 36.32489561 55.48632812 40.01708984 C58.53962711 46.08233808 61.66016315 52.11059673 64.8125 58.125 C65.27374268 59.0109082 65.73498535 59.89681641 66.21020508 60.80957031 C68.25828357 64.73288411 70.33833094 68.63191512 72.49609375 72.49609375 C72.87983154 73.19009277 73.26356934 73.8840918 73.65893555 74.59912109 C74.65201356 76.38617265 75.66108799 78.1643112 76.671875 79.94140625 C78.15402816 83.35471779 78.66430169 85.33124295 78 89 C75.18971242 92.05327587 73.01278265 93.24897825 68.9440918 93.45410156 C67.36232605 93.4534731 65.78046521 93.43115787 64.19921875 93.390625 C63.36284378 93.38496521 62.52646881 93.37930542 61.66474915 93.37347412 C59.00507289 93.35116268 56.34676595 93.30097788 53.6875 93.25 C51.87957681 93.22992815 50.07163241 93.21167858 48.26367188 93.1953125 C43.84192389 93.15131527 39.42119375 93.08232546 35 93 C35 92.34 35 91.68 35 91 C39.455 90.01 39.455 90.01 44 89 C45.27732423 84.70046565 44.74138185 82.63793592 42.69140625 78.69921875 C42.19189453 77.72275391 41.69238281 76.74628906 41.17773438 75.74023438 C40.64470703 74.73283203 40.11167969 73.72542969 39.5625 72.6875 C39.03333984 71.66076172 38.50417969 70.63402344 37.95898438 69.57617188 C36.65168916 67.04402348 35.33178572 64.51932901 34 62 C31.54392066 65.19925359 29.59978604 68.40818245 27.75 72 C27.20859375 73.03125 26.6671875 74.0625 26.109375 75.125 C24.8118366 77.84821088 24.8118366 77.84821088 25.22265625 80.30078125 C25.88837791 82.13351018 25.88837791 82.13351018 27.6875 83.1875 C30.43457082 84.15268705 33.11942081 84.60719375 36 85 C36 85.66 36 86.32 36 87 C29.46721214 87.02527002 22.93443679 87.04283292 16.40161133 87.05493164 C14.17732268 87.05997317 11.95303737 87.06680623 9.72875977 87.07543945 C6.53921691 87.08751298 3.34971771 87.09322996 0.16015625 87.09765625 C-1.34139259 87.10539818 -1.34139259 87.10539818 -2.87327576 87.11329651 C-3.79415482 87.11337204 -4.71503387 87.11344757 -5.66381836 87.11352539 C-6.47878281 87.115746 -7.29374725 87.11796661 -8.13340759 87.12025452 C-10 87 -10 87 -11 86 C-11.40992188 86.77085938 -11.81984375 87.54171875 -12.2421875 88.3359375 C-12.78101563 89.33882813 -13.31984375 90.34171875 -13.875 91.375 C-14.40867188 92.37273437 -14.94234375 93.37046875 -15.4921875 94.3984375 C-17 97 -17 97 -19 99 C-21.43744897 99.17488254 -23.7593608 99.23177405 -26.1953125 99.1953125 C-26.90275604 99.1924826 -27.61019958 99.18965271 -28.33908081 99.18673706 C-30.6012251 99.17553137 -32.86297515 99.15042679 -35.125 99.125 C-36.65754637 99.11497067 -38.19009894 99.10584474 -39.72265625 99.09765625 C-43.48192301 99.07559086 -47.24089464 99.04105896 -51 99 C-51 98.34 -51 97.68 -51 97 C-50.4212915 96.44803955 -49.84258301 95.8960791 -49.24633789 95.32739258 C-46.4777788 92.45893547 -44.83220789 89.28575838 -43.05859375 85.76171875 C-42.51263298 84.69890686 -42.51263298 84.69890686 -41.9556427 83.61462402 C-40.77476176 81.3096484 -39.60567608 78.99893717 -38.4375 76.6875 C-37.62039383 75.08294828 -36.80300915 73.47853837 -35.98535156 71.87426758 C-28.81186616 57.76387657 -21.90749468 43.53976471 -15.31576538 29.14805603 C-14.04809606 26.38276931 -12.77453577 23.62020883 -11.50109863 20.85757446 C-10.58296554 18.85709154 -9.67548845 16.85201493 -8.76855469 14.84643555 C-8.20162029 13.61226136 -7.63425782 12.3782837 -7.06640625 11.14453125 C-6.57084229 10.05503174 -6.07527832 8.96553223 -5.56469727 7.84301758 C-4.00804252 5.01461307 -2.35038964 3.18157537 0 1 C0 0.67 0 0.34 0 0 Z M5 5 C6 7 6 7 6 7 Z M6 7 C7 9 7 9 7 9 Z M7 9 C8 11 8 11 8 11 Z M8 11 C9 13 9 13 9 13 Z M9 13 C10 15 10 15 10 15 Z M10 15 C11 17 11 17 11 17 Z M11 17 C12 19 12 19 12 19 Z M12 19 C13 21 13 21 13 21 Z M13 21 C14 23 14 23 14 23 Z M14 23 C15 25 15 25 15 25 Z M15 25 C16 27 16 27 16 27 Z M16 27 C16 27.99 16 28.98 16 30 C16.66 29.67 17.32 29.34 18 29 C17.34 28.34 16.68 27.68 16 27 Z M15 30 C16 32 16 32 16 32 Z M21 36 C22 38 22 38 22 38 Z M22 38 C23 40 23 40 23 40 Z M11 39 C12 41 12 41 12 41 Z M23 40 C24 42 24 42 24 42 Z M10 41 C11 43 11 43 11 43 Z M24 42 C25 44 25 44 25 44 Z M9 43 C10 45 10 45 10 45 Z M25 44 C26 46 26 46 26 46 Z M8 45 C9 47 9 47 9 47 Z M26 46 C27 48 27 48 27 48 Z M7 47 C8 49 8 49 8 49 Z M27 48 C28 50 28 50 28 50 Z M6 49 C7 51 7 51 7 51 Z M28 50 C29 52 29 52 29 52 Z M5 51 C6 53 6 53 6 53 Z M29 52 C30 54 30 54 30 54 Z M4 53 C5 55 5 55 5 55 Z M30 54 C31 56 31 56 31 56 Z M3 55 C4 57 4 57 4 57 Z M31 56 C32 58 32 58 32 58 Z M2 57 C3 59 3 59 3 59 Z M1 59 C2 61 2 61 2 61 Z M0 61 C1 63 1 63 1 63 Z M-1 63 C0 65 0 65 0 65 Z M-2 65 C-1 67 -1 67 -1 67 Z M-3 67 C-2 69 -2 69 -2 69 Z M-4 69 C-3 71 -3 71 -3 71 Z M-5 71 C-4 73 -4 73 -4 73 Z M-6 73 C-5 75 -5 75 -5 75 Z M-7 75 C-6 77 -6 77 -6 77 Z M-8 77 C-7 79 -7 79 -7 79 Z M-9 80 C-8 82 -8 82 -8 82 Z M-10 82 C-9 84 -9 84 -9 84 Z " fill="#EE4441" transform="translate(51,15)"/>
<path d="M0 0 C4.07132487 2.09057598 5.88652527 3.88561102 7.9296875 7.96484375 C8.65671875 9.41213867 8.65671875 9.41213867 9.3984375 10.88867188 C10.12933594 12.3978418 10.12933594 12.3978418 10.875 13.9375 C11.38546875 14.93974609 11.8959375 15.94199219 12.421875 16.97460938 C16.0904339 24.40591989 16.0904339 24.40591989 15.66845703 27.17797852 C15.44786621 27.77924561 15.22727539 28.3805127 15 29 C14.7215625 30.11375 14.7215625 30.11375 14.4375 31.25 C14.293125 31.8275 14.14875 32.405 14 33 C13.34 33 12.68 33 12 33 C11.91314941 33.82636963 11.82629883 34.65273926 11.73681641 35.50415039 C10.8435379 39.74233959 9.18825835 43.10722288 7.2109375 46.93359375 C6.82942535 47.68858658 6.44791321 48.44357941 6.05484009 49.22145081 C4.83577412 51.63071983 3.60596454 54.03429185 2.375 56.4375 C0.77509668 59.58023633 -0.82001869 62.72538214 -2.4140625 65.87109375 C-3.00081757 67.02476944 -3.00081757 67.02476944 -3.59942627 68.20175171 C-6.69935387 74.32517457 -9.59638569 80.52475639 -12.40771484 86.78540039 C-14.19416131 90.39198435 -16.12612317 94.12612317 -19 97 C-21.3756852 97.0883967 -23.72208674 97.11530305 -26.09765625 97.09765625 C-27.16094398 97.09553383 -27.16094398 97.09553383 -28.24571228 97.09336853 C-30.51801712 97.08775443 -32.79022475 97.07519963 -35.0625 97.0625 C-36.59960796 97.05748681 -38.13671745 97.05292359 -39.67382812 97.04882812 C-43.44925642 97.03778042 -47.22461171 97.02050641 -51 97 C-51 96.34 -51 95.68 -51 95 C-50.4212915 94.44803955 -49.84258301 93.8960791 -49.24633789 93.32739258 C-46.4777788 90.45893547 -44.83220789 87.28575838 -43.05859375 83.76171875 C-42.51263298 82.69890686 -42.51263298 82.69890686 -41.9556427 81.61462402 C-40.77476176 79.3096484 -39.60567608 76.99893717 -38.4375 74.6875 C-37.62039383 73.08294828 -36.80300915 71.47853837 -35.98535156 69.87426758 C-28.80854333 55.7573405 -21.88487218 41.53271613 -15.31576538 27.12226868 C-14.04913672 24.34679312 -12.77513026 21.57472644 -11.50109863 18.80264282 C-10.58158907 16.79174632 -9.67483586 14.77542987 -8.76855469 12.75854492 C-8.20174058 11.52106097 -7.6343838 10.28382539 -7.06640625 9.046875 C-6.57084229 7.95213867 -6.07527832 6.85740234 -5.56469727 5.72949219 C-3.98383122 2.97179483 -2.67367029 1.65899671 0 0 Z " fill="#0796DA" transform="translate(51,17)"/>
<path d="M0 0 C3.10039543 1.75494081 5.48825667 3.48825667 8 6 C8.721875 5.38125 9.44375 4.7625 10.1875 4.125 C15.5927952 0.04099918 20.35002096 -0.74150209 27 0 C32.27322153 1.82534591 34.79691086 4.60719203 38 9 C39.25282725 12.75848174 39.12381835 16.25490919 39.09765625 20.16796875 C39.0962413 20.96278152 39.09482635 21.7575943 39.09336853 22.57649231 C39.08777378 25.11353325 39.07522228 27.65048575 39.0625 30.1875 C39.05748432 31.90820185 39.05292153 33.62890508 39.04882812 35.34960938 C39.03780607 39.5664403 39.02054506 43.78320516 39 48 C34.38 48 29.76 48 25 48 C24.505 30.675 24.505 30.675 24 13 C21.23749964 11.61874982 19.05268901 11.80920694 16 12 C13.13231454 14.86768546 13.64651855 17.78652305 13.5859375 21.6328125 C13.56657135 22.38464813 13.5472052 23.13648376 13.5272522 23.91110229 C13.46740853 26.31561899 13.42105274 28.72018344 13.375 31.125 C13.33682454 32.75392728 13.29777307 34.38283428 13.2578125 36.01171875 C13.16170334 40.00764806 13.07769059 44.00367187 13 48 C8.38 48 3.76 48 -1 48 C-1.33 36.12 -1.66 24.24 -2 12 C-9.49152482 11.26039974 -9.49152482 11.26039974 -13 14 C-13.33792536 16.61677492 -13.48886089 19.00936392 -13.51171875 21.6328125 C-13.52966995 22.38464813 -13.54762115 23.13648376 -13.56611633 23.91110229 C-13.62035781 26.31567756 -13.65415792 28.72005285 -13.6875 31.125 C-13.72066102 32.75393417 -13.75514955 34.3828419 -13.79101562 36.01171875 C-13.87609162 40.00766846 -13.94283578 44.00355746 -14 48 C-18.62 48 -23.24 48 -28 48 C-28 32.49 -28 16.98 -28 1 C-24.37 1 -20.74 1 -17 1 C-16.67 2.32 -16.34 3.64 -16 5 C-15.071875 4.360625 -14.14375 3.72125 -13.1875 3.0625 C-8.61018585 0.10070849 -5.41139744 -0.458593 0 0 Z " fill="#0C98DA" transform="translate(379,60)"/>
<path d="M0 0 C-0.33 1.65 -0.66 3.3 -1 5 C-4.3 4.67 -7.6 4.34 -11 4 C-11.33 4.66 -11.66 5.32 -12 6 C-11.43152344 6.08636719 -10.86304688 6.17273437 -10.27734375 6.26171875 C-3.80570829 7.43936193 1.29447183 9.35794285 5.3203125 14.77734375 C7.05647739 17.64869337 8 19.61256475 8 23 C5.75 23.375 5.75 23.375 3 23 C1.61558 21.03501678 0.28796166 19.02951535 -1 17 C-4.69989473 13.57082928 -7.5792349 12.70030251 -12.5 12.5 C-17.40028768 12.69308199 -20.31228553 13.58886411 -24 17 C-27.63203606 20.99523967 -27.44440212 25.25197477 -27.28515625 30.41015625 C-26.76826871 35.10462803 -24.92011892 37.17189297 -21.5 40.25 C-17.32544245 43.17219028 -14.01032069 43.41068202 -9 43 C-2.91622131 41.01369166 -0.50568397 38.31896878 3 33 C5.75 32.625 5.75 32.625 8 33 C7.67843487 38.30582464 4.78709684 41.55570072 1 45 C-3.12860684 47.75778035 -6.92625991 49.63421751 -12 49 C-12 49.99 -12 50.98 -12 52 C-11.08476562 51.76023438 -10.16953125 51.52046875 -9.2265625 51.2734375 C-7.44378906 50.82871094 -7.44378906 50.82871094 -5.625 50.375 C-4.44164062 50.07335937 -3.25828125 49.77171875 -2.0390625 49.4609375 C-1.03617187 49.30882812 -0.03328125 49.15671875 1 49 C3 51 3 51 3 54 C-5.78416369 57.67337754 -13.81547504 59.34403006 -23 56 C-31.48915218 52.0769827 -36.98798388 46.82094543 -40.875 38.3125 C-43.18422982 31.28801648 -43.19683893 23.06205992 -40.4375 16.1875 C-35.9517248 7.63943188 -29.36377049 1.34571721 -20.0625 -1.6171875 C-13.23701808 -2.88403831 -6.49963463 -2.3109812 0 0 Z " fill="#ED282F" transform="translate(481,21)"/>
<path d="M0 0 C0.66 0 1.32 0 2 0 C2.2371875 0.95519531 2.474375 1.91039062 2.71875 2.89453125 C4.10488714 7.74235067 6.30024123 12.16499275 8.5 16.6875 C8.90347656 17.52861328 9.30695313 18.36972656 9.72265625 19.23632812 C10.80788186 21.49452862 11.89863716 23.74962932 13 26 C13.33193359 26.70745361 13.66386719 27.41490723 14.00585938 28.14379883 C14.97440907 30.16740295 14.97440907 30.16740295 17 32 C16.72212646 32.52432617 16.44425293 33.04865234 16.15795898 33.58886719 C14.90523657 35.96953992 13.67127069 38.35945472 12.4375 40.75 C11.99986328 41.575 11.56222656 42.4 11.11132812 43.25 C10.70205078 44.04921875 10.29277344 44.8484375 9.87109375 45.671875 C9.29766235 46.77160645 9.29766235 46.77160645 8.71264648 47.89355469 C7.86816004 50.38969346 8.02881989 51.57516773 9 54 C12.0531291 56.14849825 15.35545149 56.50301611 19 57 C19 57.66 19 58.32 19 59 C3.82 59 -11.36 59 -27 59 C-26 50 -26 50 -23 47 C-21.60596482 44.51070304 -20.29363551 42.03142108 -19.0234375 39.48046875 C-18.65272125 38.74427811 -18.282005 38.00808746 -17.90005493 37.24958801 C-17.11882418 35.6935405 -16.3406842 34.1359379 -15.56542969 32.5769043 C-14.38200538 30.20156104 -13.18388223 27.83405099 -11.984375 25.46679688 C-11.22565711 23.95097367 -10.46781559 22.43471144 -9.7109375 20.91796875 C-9.3536557 20.21463913 -8.9963739 19.51130951 -8.62826538 18.78666687 C-6.66946309 14.81347926 -5.66011849 11.41705371 -5 7 C-4.34 6.34 -3.68 5.68 -3 5 C-2.67 4.34 -2.34 3.68 -2 3 C-1.34 2.01 -0.68 1.02 0 0 Z " fill="#B0C535" transform="translate(68,43)"/>
<path d="M0 0 C4.60173309 3.03296045 7.09676495 6.60288724 8.75 11.8125 C8.91527522 14.56442123 8.98365572 17.20913188 8.9453125 19.95703125 C8.9424826 20.72681808 8.93965271 21.49660492 8.93673706 22.28971863 C8.92559157 24.73497425 8.90049781 27.17985612 8.875 29.625 C8.8649629 31.28840615 8.85583833 32.95181807 8.84765625 34.61523438 C8.82567073 38.68113237 8.79118014 42.74675294 8.75 46.8125 C4.13 46.8125 -0.49 46.8125 -5.25 46.8125 C-5.58 34.9325 -5.91 23.0525 -6.25 10.8125 C-14.3156984 10.24558637 -14.3156984 10.24558637 -17.77441406 11.84301758 C-19.99390973 14.80540533 -19.85318023 17.76281037 -19.859375 21.32421875 C-19.87591125 22.05244339 -19.89244751 22.78066803 -19.90948486 23.53096008 C-19.95802197 25.85405865 -19.97934669 28.1765025 -20 30.5 C-20.02815518 32.07620492 -20.05808199 33.65237926 -20.08984375 35.22851562 C-20.16378144 39.08978983 -20.21332032 42.95069939 -20.25 46.8125 C-24.54 46.8125 -28.83 46.8125 -33.25 46.8125 C-33.25 31.3025 -33.25 15.7925 -33.25 -0.1875 C-29.95 -0.1875 -26.65 -0.1875 -23.25 -0.1875 C-22.59 1.1325 -21.93 2.4525 -21.25 3.8125 C-20.156875 3.173125 -19.06375 2.53375 -17.9375 1.875 C-12.04506205 -1.57152031 -6.43421653 -2.35096373 0 0 Z " fill="#0D99DA" transform="translate(215.25,61.1875)"/>
<path d="M0 0 C4.62 0 9.24 0 14 0 C14.01981934 0.98395752 14.03963867 1.96791504 14.06005859 2.98168945 C14.13613987 6.63282839 14.224853 10.28357009 14.31738281 13.93432617 C14.35566221 15.51432451 14.39051697 17.09440969 14.421875 18.67456055 C14.46754876 20.94611645 14.52553784 23.21707509 14.5859375 25.48828125 C14.59748871 26.19463211 14.60903992 26.90098297 14.62094116 27.6287384 C14.73071048 31.27741393 14.92142364 32.88213546 17 36 C21.9049573 36.46273182 24.31353277 35.87458689 29 34 C29 22.78 29 11.56 29 0 C33.29 0 37.58 0 42 0 C42 15.51 42 31.02 42 47 C38.7 47 35.4 47 32 47 C31.01 46.01 30.02 45.02 29 44 C28.5153125 44.28875 28.030625 44.5775 27.53125 44.875 C22.610954 47.60008702 18.62448629 49.06821639 13 48 C7.20380991 46.11729592 3.82573542 43.53844143 1 38 C-0.12937182 33.78128587 -0.12980839 29.62886477 -0.09765625 25.29296875 C-0.0962413 24.56757401 -0.09482635 23.84217926 -0.09336853 23.09480286 C-0.08779931 20.7923255 -0.07525261 18.48994765 -0.0625 16.1875 C-0.05748102 14.62044412 -0.05291881 13.0533867 -0.04882812 11.48632812 C-0.03783998 7.65751411 -0.02059673 3.82877389 0 0 Z " fill="#0B98DA" transform="translate(300,61)"/>
<path d="M0 0 C5.15228416 3.76996402 7.93876815 7.74848236 9.5625 13.875 C9.72413015 16.51634946 9.79719585 19.04384656 9.7578125 21.6796875 C9.7549826 22.4036673 9.75215271 23.12764709 9.74923706 23.87356567 C9.73812087 26.1658849 9.71303312 28.45780063 9.6875 30.75 C9.6774591 32.31249432 9.66833519 33.87499482 9.66015625 35.4375 C9.63820973 39.25015338 9.60374013 43.06250848 9.5625 46.875 C7.93831255 46.95590971 6.31298255 47.01414995 4.6875 47.0625 C3.78257812 47.09730469 2.87765625 47.13210937 1.9453125 47.16796875 C0.76582031 47.02294922 0.76582031 47.02294922 -0.4375 46.875 C-1.0975 45.885 -1.7575 44.895 -2.4375 43.875 C-3.159375 44.16375 -3.88125 44.4525 -4.625 44.75 C-5.553125 45.12125 -6.48125 45.4925 -7.4375 45.875 C-8.18 46.24625 -8.9225 46.6175 -9.6875 47 C-15.00499073 48.69192887 -20.26598724 48.81602344 -25.3125 46.25 C-28.84552184 43.5649034 -30.15734329 42.11551912 -31.4375 37.875 C-31.80222385 33.8119763 -31.58636553 30.40461347 -29.08203125 27.0703125 C-22.0942267 20.64217193 -13.53370871 19.29628261 -4.4375 17.875 C-4.7675 15.565 -5.0975 13.255 -5.4375 10.875 C-12.15450347 10.55514269 -17.19476932 11.3956176 -23.4375 13.875 C-28.3125 9.25 -28.3125 9.25 -29.4375 5.875 C-20.17924093 -0.2815073 -11.11483899 -3.63758367 0 0 Z M-17.4375 30.875 C-18.74991113 33.34415186 -18.74991113 33.34415186 -18.4375 35.875 C-16.45357489 38.27351321 -16.45357489 38.27351321 -12.625 38.3125 C-9.14093564 38.22365319 -8.43262622 37.8714462 -5.4375 35.6875 C-3.29892247 32.68012535 -2.92485968 31.46348221 -3.4375 27.875 C-8.52114251 27.49372681 -13.0475654 28.22644088 -17.4375 30.875 Z " fill="#0C98DA" transform="translate(260.4375,61.125)"/>
<path d="M0 0 C4.95 0 9.9 0 15 0 C15 22.44 15 44.88 15 68 C10.05 68 5.1 68 0 68 C0 45.56 0 23.12 0 0 Z " fill="#129BDB" transform="translate(157,40)"/>
<path d="M0 0 C4.62 0 9.24 0 14 0 C14 22.44 14 44.88 14 68 C9.38 68 4.76 68 0 68 C0 45.56 0 23.12 0 0 Z " fill="#0D99DA" transform="translate(278,40)"/>
<path d="M0 0 C1.12775345 0.00212242 1.12775345 0.00212242 2.27828979 0.00428772 C4.6829626 0.0098916 7.08754277 0.02244468 9.4921875 0.03515625 C11.12109241 0.04017075 12.74999877 0.04473375 14.37890625 0.04882812 C18.37503577 0.05986228 22.37109592 0.07712946 26.3671875 0.09765625 C23.3671875 2.09765625 23.3671875 2.09765625 21.3671875 2.09765625 C21.08866943 2.80954102 20.81015137 3.52142578 20.52319336 4.25488281 C18.51063605 9.20403114 16.20391838 14.01454499 13.9296875 18.84765625 C13.43919922 19.91371094 12.94871094 20.97976562 12.44335938 22.078125 C11.96576172 23.09003906 11.48816406 24.10195313 10.99609375 25.14453125 C10.56369385 26.07104492 10.13129395 26.99755859 9.68579102 27.95214844 C8.3671875 30.09765625 8.3671875 30.09765625 5.3671875 31.09765625 C5.02461914 30.4113916 4.68205078 29.72512695 4.32910156 29.01806641 C2.77066514 25.91329485 1.19421177 22.81802482 -0.3828125 19.72265625 C-0.92164062 18.64242188 -1.46046875 17.5621875 -2.015625 16.44921875 C-2.54414062 15.41796875 -3.07265625 14.38671875 -3.6171875 13.32421875 C-4.09897461 12.37111816 -4.58076172 11.41801758 -5.07714844 10.43603516 C-6.73817464 7.93928233 -7.85996323 7.12831909 -10.6328125 6.09765625 C-10.2578125 3.66015625 -10.2578125 3.66015625 -9.6328125 1.09765625 C-6.56686656 -0.43531672 -3.36169397 -0.0236583 0 0 Z " fill="#AFC635" transform="translate(93.6328125,8.90234375)"/>
<path d="M0 0 C3 1 3 1 4.16796875 2.5390625 C8.00141928 10.38221416 8.65325804 19.50643853 6.12890625 27.89453125 C5.19134585 30.02035501 4.18581087 32.00459938 3 34 C2.67 34.66 2.34 35.32 2 36 C0.35 35.34 -1.3 34.68 -3 34 C-2.38268543 31.28501457 -1.54406531 28.86241138 -0.4375 26.3125 C1.99756599 19.80291764 1.85526624 14.40302004 -1 8.0625 C-1.37125 7.33160156 -1.7425 6.60070313 -2.125 5.84765625 C-3 4 -3 4 -3 2 C-2.01 1.34 -1.02 0.68 0 0 Z " fill="#ED3239" transform="translate(491,31)"/>
<path d="M0 0 C2.8125 -0.4375 2.8125 -0.4375 5 0 C4.67843487 5.30582464 1.78709684 8.55570072 -2 12 C-6.12860684 14.75778035 -9.92625991 16.63421751 -15 16 C-15.33 16.99 -15.66 17.98 -16 19 C-16 17.68 -16 16.36 -16 15 C-15.01 15 -14.02 15 -13 15 C-13 14.34 -13 13.68 -13 13 C-13.66 12.34 -14.32 11.68 -15 11 C-14.33613281 10.79246094 -13.67226563 10.58492187 -12.98828125 10.37109375 C-6.59566138 8.15425279 -6.59566138 8.15425279 -2.1875 3.25 C-1.465625 2.1775 -0.74375 1.105 0 0 Z " fill="#EE3940" transform="translate(484,54)"/>
<path d="M0 0 C0 0.99 0 1.98 0 3 C-4.92984325 5.03993514 -8.57960425 6.40652968 -14 6 C-13.01 5.01 -12.02 4.02 -11 3 C-12.32 2.34 -13.64 1.68 -15 1 C-13.25559202 0.44058641 -11.50414743 -0.09691897 -9.75 -0.625 C-8.77546875 -0.92664063 -7.8009375 -1.22828125 -6.796875 -1.5390625 C-3.68321539 -2.05220752 -2.58430745 -1.71056541 0 0 Z " fill="#EE363D" transform="translate(484,72)"/>
<path d="M0 0 C3 1 3 1 4.203125 2.92578125 C4.54859375 3.71339844 4.8940625 4.50101563 5.25 5.3125 C5.78367187 6.48232422 5.78367187 6.48232422 6.328125 7.67578125 C7.0711335 10.24607227 6.88750996 11.51383429 6 14 C5.34 12.68 4.68 11.36 4 10 C3.34 10 2.68 10 2 10 C1.67 10.99 1.34 11.98 1 13 C0.32880451 11.5437455 -0.33681807 10.08492133 -1 8.625 C-1.37125 7.81289063 -1.7425 7.00078125 -2.125 6.1640625 C-3 4 -3 4 -3 2 C-2.01 1.34 -1.02 0.68 0 0 Z " fill="#EF454C" transform="translate(491,31)"/>
<path d="M0 0 C3.875 3.75 3.875 3.75 5 6 C4.22265625 7.9453125 4.22265625 7.9453125 3.0625 10.125 C2.68222656 10.84945312 2.30195313 11.57390625 1.91015625 12.3203125 C1.45962891 13.15175781 1.45962891 13.15175781 1 14 C-1.475 13.01 -1.475 13.01 -4 12 C-3.33989524 9.15449988 -2.48275034 6.47674001 -1.4375 3.75 C-1.16808594 3.04359375 -0.89867187 2.3371875 -0.62109375 1.609375 C-0.41613281 1.07828125 -0.21117187 0.5471875 0 0 Z " fill="#F04E55" transform="translate(492,53)"/>
<path d="M0 0 C0 0.66 0 1.32 0 2 C9.57 2 19.14 2 29 2 C29 2.33 29 2.66 29 3 C16.46 3 3.92 3 -9 3 C-9 2.34 -9 1.68 -9 1 C-2.25 0 -2.25 0 0 0 Z " fill="#F16765" transform="translate(95,105)"/>
<path d="M0 0 C2 1.8125 2 1.8125 4 4 C4 4.99 4 5.98 4 7 C2.02 7.66 0.04 8.32 -2 9 C-1.34 6.03 -0.68 3.06 0 0 Z " fill="#EE3B42" transform="translate(492,53)"/>
<path d="M0 0 C0.33 0.99 0.66 1.98 1 3 C1.66 3 2.32 3 3 3 C3 4.65 3 6.3 3 8 C2.01 8 1.02 8 0 8 C-0.98120464 4.94736336 -0.98120464 3.05263664 0 0 Z " fill="#EB1B23" transform="translate(494,49)"/>
<path d="M0 0 C1.98 0.495 1.98 0.495 4 1 C3.67 2.32 3.34 3.64 3 5 C1.68 5 0.36 5 -1 5 C-0.67 3.35 -0.34 1.7 0 0 Z " fill="#F04C53" transform="translate(486,46)"/>
<path d="M0 0 C1.98 0.495 1.98 0.495 4 1 C4 2.32 4 3.64 4 5 C2.35 4.67 0.7 4.34 -1 4 C-0.67 2.68 -0.34 1.36 0 0 Z " fill="#F04D53" transform="translate(484,25)"/>
<path d="M0 0 C0.99 0.33 1.98 0.66 3 1 C3 2.32 3 3.64 3 5 C1.35 4.67 -0.3 4.34 -2 4 C-2 3.01 -2 2.02 -2 1 C-1.34 0.67 -0.68 0.34 0 0 Z " fill="#EF4B51" transform="translate(486,66)"/>
<path d="M0 0 C2 2 2 2 2 5 C1.34 5 0.68 5 0 5 C-0.33 5.99 -0.66 6.98 -1 8 C-1.33 5.69 -1.66 3.38 -2 1 C-1.34 0.67 -0.68 0.34 0 0 Z " fill="#EB1921" transform="translate(495,40)"/>
</svg>
