<?xml version="1.0" encoding="UTF-8"?>
<svg version="1.1" xmlns="http://www.w3.org/2000/svg" width="128" height="42">
<path d="M0 0 C1.22847656 -0.02835938 2.45695312 -0.05671875 3.72265625 -0.0859375 C6.9375 0.375 6.9375 0.375 8.83984375 2.16015625 C10.53304826 5.57669347 10.64549792 8.70440884 9.9375 12.375 C6.78193187 19.78372517 -0.11760503 22.68433073 -7.125 25.6875 C-7.764375 25.914375 -8.40375 26.14125 -9.0625 26.375 C-8.36382813 26.27960937 -7.66515625 26.18421875 -6.9453125 26.0859375 C-6.03523438 25.97507812 -5.12515625 25.86421875 -4.1875 25.75 C-2.83011719 25.57597656 -2.83011719 25.57597656 -1.4453125 25.3984375 C-0.65898437 25.39070313 0.12734375 25.38296875 0.9375 25.375 C2.9375 27.375 2.9375 27.375 3.0625 31 C3.02125 32.11375 2.98 33.2275 2.9375 34.375 C3.5975 34.375 4.2575 34.375 4.9375 34.375 C4.6075 30.085 4.2775 25.795 3.9375 21.375 C5.9175 21.045 7.8975 20.715 9.9375 20.375 C10.4325 23.84 10.4325 23.84 10.9375 27.375 C11.4325 26.88 11.4325 26.88 11.9375 26.375 C13.60367115 26.33436168 15.27138095 26.332279 16.9375 26.375 C16.9375 27.035 16.9375 27.695 16.9375 28.375 C15.9475 28.705 14.9575 29.035 13.9375 29.375 C14.4325 31.85 14.4325 31.85 14.9375 34.375 C15.5975 34.375 16.2575 34.375 16.9375 34.375 C16.9375 35.365 16.9375 36.355 16.9375 37.375 C10.9975 37.375 5.0575 37.375 -1.0625 37.375 C-1.0625 34.735 -1.0625 32.095 -1.0625 29.375 C-1.7225 29.375 -2.3825 29.375 -3.0625 29.375 C-2.7325 32.015 -2.4025 34.655 -2.0625 37.375 C-4.68777189 37.42882106 -7.31194713 37.46858313 -9.9375 37.5 C-10.68386719 37.51675781 -11.43023438 37.53351562 -12.19921875 37.55078125 C-14.15444461 37.5683959 -16.10992021 37.47820189 -18.0625 37.375 C-18.7225 36.715 -19.3825 36.055 -20.0625 35.375 C-20.7225 36.035 -21.3825 36.695 -22.0625 37.375 C-25.08076653 37.64740673 -28.02620622 37.46175125 -31.0625 37.375 C-31.3925 32.095 -31.7225 26.815 -32.0625 21.375 C-23.6640625 21.1796875 -23.6640625 21.1796875 -21.0625 21.375 C-19.0625 23.375 -19.0625 23.375 -19 26.4375 C-19.020625 27.406875 -19.04125 28.37625 -19.0625 29.375 C-18.7325 29.705 -18.4025 30.035 -18.0625 30.375 C-17.93875 29.735625 -17.815 29.09625 -17.6875 28.4375 C-17.48125 27.756875 -17.275 27.07625 -17.0625 26.375 C-16.4025 26.045 -15.7425 25.715 -15.0625 25.375 C-15.866875 24.67375 -16.67125 23.9725 -17.5 23.25 C-20.37078361 20.02912082 -21.0625 18.64795494 -21.0625 14.375 C-19.02181448 8.25294343 -14.55724202 4.62818894 -9.28125 1.2265625 C-6.15083207 0.02509928 -3.34312331 0.03515377 0 0 Z M-6 5.375 C-10.71017762 5.98423147 -12.93132398 8.7953133 -15.91015625 12.26953125 C-17.30066299 14.31271421 -17.30066299 14.31271421 -16.74609375 16.63671875 C-16.52050781 17.21035156 -16.29492188 17.78398437 -16.0625 18.375 C-10.1444503 19.70354177 -7.28520869 19.03964729 -2.0625 16.375 C-1.7325 17.035 -1.4025 17.695 -1.0625 18.375 C3.57947297 15.13524799 3.57947297 15.13524799 5.9375 10.1875 C5.9375 9.259375 5.9375 8.33125 5.9375 7.375 C4.09755915 5.09843879 4.09755915 5.09843879 1.3125 5.1875 C-1.12204703 5.32275261 -3.56169885 5.375 -6 5.375 Z M-26.0625 24.375 C-25.7325 25.365 -25.4025 26.355 -25.0625 27.375 C-24.7325 26.385 -24.4025 25.395 -24.0625 24.375 C-24.7225 24.375 -25.3825 24.375 -26.0625 24.375 Z M-9.0625 28.375 C-9.0625 30.355 -9.0625 32.335 -9.0625 34.375 C-8.4025 34.375 -7.7425 34.375 -7.0625 34.375 C-7.0625 32.725 -7.0625 31.075 -7.0625 29.375 C-7.7225 29.045 -8.3825 28.715 -9.0625 28.375 Z M-26.0625 30.375 C-26.0625 31.695 -26.0625 33.015 -26.0625 34.375 C-25.4025 34.375 -24.7425 34.375 -24.0625 34.375 C-24.0625 33.055 -24.0625 31.735 -24.0625 30.375 C-24.7225 30.375 -25.3825 30.375 -26.0625 30.375 Z " fill="#ED7D22" transform="translate(32.0625,-0.375)"/>
<path d="M0 0 C2.64 0 5.28 0 8 0 C8 0.99 8 1.98 8 3 C7.34 3 6.68 3 6 3 C6.33 5.64 6.66 8.28 7 11 C8.65 11.33 10.3 11.66 12 12 C12 9.03 12 6.06 12 3 C11.34 3 10.68 3 10 3 C10 2.01 10 1.02 10 0 C14.29 0 18.58 0 23 0 C23.99 2.31 24.98 4.62 26 7 C27.89213369 4.61426621 29.02391783 2.92824652 30 0 C34.62 0 39.24 0 44 0 C44 3.96 44 7.92 44 12 C44.99 12 45.98 12 47 12 C47.33 9.03 47.66 6.06 48 3 C47.34 3 46.68 3 46 3 C46 2.01 46 1.02 46 0 C52.6 0 59.2 0 66 0 C66 1.65 66 3.3 66 5 C65.34 5 64.68 5 64 5 C64 4.34 64 3.68 64 3 C63.01 3 62.02 3 61 3 C61.14230808 4.41702513 61.28900746 5.8336096 61.4375 7.25 C61.51871094 8.03890625 61.59992188 8.8278125 61.68359375 9.640625 C61.97634993 11.82364639 62.42064419 13.8773182 63 16 C60.36 16 57.72 16 55 16 C55 15.01 55 14.02 55 13 C55.66 13 56.32 13 57 13 C57 9.7 57 6.4 57 3 C56.34 3 55.68 3 55 3 C55 3.66 55 4.32 55 5 C54.01 5 53.02 5 52 5 C51.87882812 5.71027344 51.75765625 6.42054687 51.6328125 7.15234375 C51.46523437 8.07144531 51.29765625 8.99054687 51.125 9.9375 C50.96257812 10.85402344 50.80015625 11.77054688 50.6328125 12.71484375 C50.42398438 13.46894531 50.21515625 14.22304688 50 15 C46.95016004 16.52491998 44.3576631 16.23562548 41 16 C39.2890625 14.80859375 39.2890625 14.80859375 38 13 C37.70703125 10.51953125 37.70703125 10.51953125 37.8125 7.8125 C37.85310547 6.46091797 37.85310547 6.46091797 37.89453125 5.08203125 C37.92933594 4.39496094 37.96414062 3.70789063 38 3 C37.01 3 36.02 3 35 3 C35 6.3 35 9.6 35 13 C35.66 13 36.32 13 37 13 C37 13.99 37 14.98 37 16 C34.36 16 31.72 16 29 16 C29 14.68 29 13.36 29 12 C28.34 13.32 27.68 14.64 27 16 C26.01 16 25.02 16 24 16 C23.34 14.35 22.68 12.7 22 11 C22 12.65 22 14.3 22 16 C20.02 16 18.04 16 16 16 C16 15.01 16 14.02 16 13 C16.66 13 17.32 13 18 13 C18 9.7 18 6.4 18 3 C17.34 3 16.68 3 16 3 C15.96261719 3.68707031 15.92523438 4.37414062 15.88671875 5.08203125 C15.82097656 5.98308594 15.75523438 6.88414063 15.6875 7.8125 C15.62949219 8.70582031 15.57148437 9.59914063 15.51171875 10.51953125 C14.92341681 13.37122384 14.37292114 14.34220578 12 16 C9.20118956 16.5154245 6.88240605 16.22876238 4 16 C2 14 2 14 1.8046875 11.3984375 C1.82789063 10.40070312 1.85109375 9.40296875 1.875 8.375 C1.89304688 7.37210938 1.91109375 6.36921875 1.9296875 5.3359375 C1.95289063 4.56507812 1.97609375 3.79421875 2 3 C1.34 3 0.68 3 0 3 C0 2.01 0 1.02 0 0 Z " fill="#1E194E" transform="translate(62,21)"/>
<path d="M0 0 C1.81564453 -0.02900391 1.81564453 -0.02900391 3.66796875 -0.05859375 C6.8125 0.4375 6.8125 0.4375 8.70703125 2.2265625 C10.41308946 5.63867892 10.52057768 8.76649534 9.8125 12.4375 C7.51638141 17.82838712 3.40966806 20.90153943 -1.7109375 23.49609375 C-6.37265345 25.26813404 -11.60717575 26.45483214 -16.3671875 24.578125 C-19.03850348 22.90425319 -19.96398401 21.33530102 -21.1875 18.4375 C-21.4116869 12.49654718 -19.02489917 9.47293925 -15.26953125 5.234375 C-10.49488252 1.11366503 -6.23607692 0.0066839 0 0 Z M-6.125 5.4375 C-10.83517762 6.04673147 -13.05632398 8.8578133 -16.03515625 12.33203125 C-17.42566299 14.37521421 -17.42566299 14.37521421 -16.87109375 16.69921875 C-16.64550781 17.27285156 -16.41992188 17.84648437 -16.1875 18.4375 C-10.2694503 19.76604177 -7.41020869 19.10214729 -2.1875 16.4375 C-1.8575 17.0975 -1.5275 17.7575 -1.1875 18.4375 C3.45447297 15.19774799 3.45447297 15.19774799 5.8125 10.25 C5.8125 9.321875 5.8125 8.39375 5.8125 7.4375 C3.97255915 5.16093879 3.97255915 5.16093879 1.1875 5.25 C-1.24704703 5.38525261 -3.68669885 5.4375 -6.125 5.4375 Z " fill="#1D184E" transform="translate(32.1875,-0.4375)"/>
<path d="M0 0 C1.24523437 0.02707031 2.49046875 0.05414062 3.7734375 0.08203125 C4.71445312 0.11683594 5.65546875 0.15164063 6.625 0.1875 C6.625 1.1775 6.625 2.1675 6.625 3.1875 C5.7896875 3.11789063 5.7896875 3.11789063 4.9375 3.046875 C-1.09530024 2.76153985 -5.42807342 3.63027606 -10.375 7.1875 C-12.69416355 9.31875691 -14.79201508 11.45325332 -16.375 14.1875 C-16.375 15.5075 -16.375 16.8275 -16.375 18.1875 C-11.18290596 18.39942221 -7.248261 17.7787689 -2.375 16.1875 C-3.36672097 19.16266292 -4.10464317 20.04902455 -6.9375 21.5 C-11.17531889 22.34756378 -15.1990344 22.43193775 -19.375 21.1875 C-21.375 18.1875 -21.375 18.1875 -21.4375 15 C-19.72738028 8.86368808 -15.97532894 4.80036225 -10.59765625 1.46484375 C-6.83638853 -0.025986 -4.03027329 -0.11406434 0 0 Z " fill="#EF8021" transform="translate(32.375,-0.1875)"/>
<path d="M0 0 C0 1.65 0 3.3 0 5 C-0.99 5 -1.98 5 -3 5 C-3 4.34 -3 3.68 -3 3 C-3.99 3 -4.98 3 -6 3 C-6 3.66 -6 4.32 -6 5 C-5.030625 5.309375 -4.06125 5.61875 -3.0625 5.9375 C0 7 0 7 1 8 C1.28417861 10.69969684 1.32477191 12.41135091 0 14.8125 C-3.23988962 16.73618446 -6.2825819 16.18282384 -10 16 C-10.625 14.1875 -10.625 14.1875 -11 12 C-10.34 11.01 -9.68 10.02 -9 9 C-9.350625 8.195625 -9.70125 7.39125 -10.0625 6.5625 C-11 4 -11 4 -10.125 1.6875 C-6.83353274 -0.92631224 -4.12573831 -0.27054022 0 0 Z M-8 10 C-8 10.99 -8 11.98 -8 13 C-6.35 12.67 -4.7 12.34 -3 12 C-3 11.34 -3 10.68 -3 10 C-4.65 10 -6.3 10 -8 10 Z " fill="#1E194E" transform="translate(61,21)"/>
</svg>
